<?xml version="1.0" encoding="UTF-8"?>
<svg xmlns="http://www.w3.org/2000/svg" xmlns:xlink="http://www.w3.org/1999/xlink" width="400px" height="315px" viewBox="0 0 400 315" version="1.1">
<g id="surface1">
<path style=" stroke:none;fill-rule:nonzero;fill:rgb(24.705882%,23.921569%,33.72549%);fill-opacity:1;" d="M 196.886719 71.570312 L 195.230469 71.570312 L 195.230469 26.238281 C 195.230469 11.746094 183.503906 0 169.039062 0 L 73.148438 0 C 58.675781 0 46.949219 11.746094 46.949219 26.238281 L 46.949219 274.933594 C 46.949219 289.425781 58.675781 301.171875 73.148438 301.171875 L 169.035156 301.171875 C 183.503906 301.171875 195.230469 289.425781 195.230469 274.933594 L 195.230469 103.839844 L 196.886719 103.839844 Z M 196.886719 71.570312 "/>
<path style=" stroke:none;fill-rule:nonzero;fill:rgb(100%,100%,100%);fill-opacity:1;" d="M 169.898438 7.445312 L 157.378906 7.445312 C 158.546875 10.316406 158.214844 13.582031 156.488281 16.15625 C 154.761719 18.726562 151.867188 20.269531 148.773438 20.269531 L 93.839844 20.269531 C 90.746094 20.269531 87.851562 18.726562 86.128906 16.15625 C 84.398438 13.582031 84.066406 10.316406 85.234375 7.445312 L 73.542969 7.445312 C 62.738281 7.445312 53.980469 16.21875 53.980469 27.039062 L 53.980469 275.371094 C 53.980469 286.195312 62.738281 294.964844 73.542969 294.964844 L 169.898438 294.964844 C 180.699219 294.964844 189.460938 286.195312 189.460938 275.371094 L 189.460938 27.042969 C 189.460938 16.21875 180.699219 7.445312 169.898438 7.445312 Z M 167.792969 122.648438 C 167.785156 125.449219 165.523438 127.714844 162.726562 127.726562 L 138.234375 127.726562 C 135.441406 127.714844 133.175781 125.449219 133.167969 122.648438 L 133.167969 121.378906 C 133.175781 118.582031 135.441406 116.3125 138.234375 116.304688 L 162.726562 116.304688 C 165.523438 116.3125 167.785156 118.582031 167.792969 121.378906 Z M 170.539062 100.234375 C 170.53125 103.03125 168.265625 105.300781 165.472656 105.308594 L 77.640625 105.308594 C 74.847656 105.300781 72.582031 103.03125 72.574219 100.234375 L 72.574219 98.964844 C 72.582031 96.167969 74.847656 93.898438 77.640625 93.890625 L 165.472656 93.890625 C 168.265625 93.898438 170.53125 96.167969 170.539062 98.964844 Z M 170.539062 77.820312 C 170.53125 80.617188 168.265625 82.886719 165.472656 82.894531 L 77.640625 82.894531 C 74.847656 82.886719 72.582031 80.617188 72.574219 77.820312 L 72.574219 76.550781 C 72.582031 73.75 74.847656 71.484375 77.640625 71.472656 L 165.472656 71.472656 C 168.265625 71.484375 170.53125 73.75 170.539062 76.550781 Z M 170.539062 55.40625 C 170.53125 58.203125 168.265625 60.46875 165.472656 60.480469 L 77.640625 60.480469 C 74.847656 60.46875 72.582031 58.203125 72.574219 55.40625 L 72.574219 54.132812 C 72.582031 51.335938 74.847656 49.070312 77.640625 49.058594 L 165.472656 49.058594 C 168.265625 49.070312 170.53125 51.335938 170.539062 54.132812 Z M 170.539062 55.40625 "/>
<path style=" stroke:none;fill-rule:nonzero;fill:rgb(100%,100%,100%);fill-opacity:1;" d="M 82.496094 99.8125 C 82.496094 101.445312 81.175781 102.769531 79.542969 102.769531 C 77.90625 102.769531 76.585938 101.445312 76.585938 99.8125 C 76.585938 98.175781 77.90625 96.851562 79.542969 96.851562 C 81.175781 96.851562 82.496094 98.175781 82.496094 99.8125 Z M 82.496094 99.8125 "/>
<path style=" stroke:none;fill-rule:nonzero;fill:rgb(100%,100%,100%);fill-opacity:1;" d="M 92.210938 99.8125 C 92.210938 101.445312 90.886719 102.769531 89.253906 102.769531 C 87.621094 102.769531 86.296875 101.445312 86.296875 99.8125 C 86.296875 98.175781 87.621094 96.851562 89.253906 96.851562 C 90.886719 96.851562 92.210938 98.175781 92.210938 99.8125 Z M 92.210938 99.8125 "/>
<path style=" stroke:none;fill-rule:nonzero;fill:rgb(100%,100%,100%);fill-opacity:1;" d="M 101.921875 99.8125 C 101.921875 101.445312 100.597656 102.769531 98.964844 102.769531 C 97.332031 102.769531 96.011719 101.445312 96.011719 99.8125 C 96.011719 98.175781 97.332031 96.851562 98.964844 96.851562 C 100.597656 96.851562 101.921875 98.175781 101.921875 99.8125 Z M 101.921875 99.8125 "/>
<path style=" stroke:none;fill-rule:nonzero;fill:rgb(100%,100%,100%);fill-opacity:1;" d="M 111.632812 99.8125 C 111.632812 101.445312 110.308594 102.769531 108.675781 102.769531 C 107.046875 102.769531 105.722656 101.445312 105.722656 99.8125 C 105.722656 98.175781 107.046875 96.851562 108.675781 96.851562 C 110.308594 96.851562 111.632812 98.175781 111.632812 99.8125 Z M 111.632812 99.8125 "/>
<path style=" stroke:none;fill-rule:nonzero;fill:rgb(100%,100%,100%);fill-opacity:1;" d="M 143.304688 122.226562 C 143.304688 123.859375 141.980469 125.1875 140.347656 125.1875 C 138.714844 125.1875 137.390625 123.859375 137.390625 122.226562 C 137.390625 120.589844 138.714844 119.265625 140.347656 119.265625 C 141.980469 119.265625 143.304688 120.589844 143.304688 122.226562 Z M 143.304688 122.226562 "/>
<path style=" stroke:none;fill-rule:nonzero;fill:rgb(100%,100%,100%);fill-opacity:1;" d="M 153.015625 122.226562 C 153.015625 123.859375 151.691406 125.1875 150.058594 125.1875 C 148.425781 125.1875 147.101562 123.859375 147.101562 122.226562 C 147.101562 120.589844 148.425781 119.265625 150.058594 119.265625 C 151.691406 119.265625 153.015625 120.589844 153.015625 122.226562 Z M 153.015625 122.226562 "/>
<path style=" stroke:none;fill-rule:nonzero;fill:rgb(100%,100%,100%);fill-opacity:1;" d="M 162.726562 122.226562 C 162.726562 123.859375 161.402344 125.1875 159.769531 125.1875 C 158.140625 125.1875 156.816406 123.859375 156.816406 122.226562 C 156.816406 120.589844 158.140625 119.265625 159.769531 119.265625 C 161.402344 119.265625 162.726562 120.589844 162.726562 122.226562 Z M 162.726562 122.226562 "/>
<path style=" stroke:none;fill-rule:nonzero;fill:rgb(0%,74.901961%,65.098039%);fill-opacity:1;" d="M 171.21875 160.585938 L 71.050781 160.585938 C 66.148438 160.585938 62.175781 164.566406 62.175781 169.472656 L 62.175781 218.351562 C 62.175781 223.261719 66.148438 227.242188 71.050781 227.242188 L 171.21875 227.242188 C 176.117188 227.242188 180.09375 223.261719 180.09375 218.351562 L 180.09375 169.472656 C 180.09375 164.566406 176.117188 160.585938 171.21875 160.585938 Z M 68.570312 166.648438 C 68.769531 166.613281 73.460938 165.8125 77.34375 168.152344 C 81.226562 170.492188 82.722656 175.019531 82.78125 175.210938 L 82.9375 175.699219 L 82.433594 175.785156 C 81.714844 175.902344 80.988281 175.953125 80.257812 175.949219 C 77.953125 175.992188 75.671875 175.414062 73.660156 174.28125 C 69.777344 171.941406 68.289062 167.414062 68.226562 167.226562 L 68.066406 166.738281 Z M 90.316406 212.03125 L 72.449219 212.03125 C 69.734375 212.03125 67.535156 209.828125 67.535156 207.109375 C 67.535156 204.390625 69.734375 202.1875 72.449219 202.1875 L 90.316406 202.1875 C 93.027344 202.1875 95.230469 204.390625 95.230469 207.109375 C 95.230469 209.828125 93.027344 212.03125 90.316406 212.03125 Z M 171.605469 211.136719 C 171.59375 214.097656 169.203125 216.496094 166.246094 216.503906 L 152.84375 216.503906 C 149.890625 216.496094 147.496094 214.097656 147.484375 211.136719 L 147.484375 203.082031 C 147.496094 200.125 149.890625 197.722656 152.84375 197.714844 L 166.246094 197.714844 C 169.203125 197.722656 171.59375 200.125 171.605469 203.082031 Z M 171.605469 211.136719 "/>
<path style=" stroke:none;fill-rule:nonzero;fill:rgb(24.705882%,23.921569%,33.72549%);fill-opacity:1;" d="M 157.167969 209.476562 L 151.78125 209.476562 C 150.976562 209.476562 150.328125 210.125 150.328125 210.929688 C 150.328125 211.730469 150.976562 212.382812 151.78125 212.382812 L 157.167969 212.382812 C 157.964844 212.382812 158.617188 211.730469 158.617188 210.929688 C 158.617188 210.125 157.964844 209.476562 157.167969 209.476562 Z M 157.167969 209.476562 "/>
<path style=" stroke:none;fill-rule:nonzero;fill:rgb(24.705882%,23.921569%,33.72549%);fill-opacity:1;" d="M 167.113281 209.476562 L 161.722656 209.476562 C 160.925781 209.476562 160.273438 210.125 160.273438 210.929688 C 160.273438 211.730469 160.925781 212.382812 161.722656 212.382812 L 167.113281 212.382812 C 167.914062 212.382812 168.5625 211.730469 168.5625 210.929688 C 168.5625 210.125 167.914062 209.476562 167.113281 209.476562 Z M 167.113281 209.476562 "/>
<path style=" stroke:none;fill-rule:nonzero;fill:rgb(24.705882%,23.921569%,33.72549%);fill-opacity:1;" d="M 157.167969 205.375 L 151.777344 205.375 C 150.976562 205.375 150.328125 206.023438 150.328125 206.828125 C 150.328125 207.632812 150.976562 208.28125 151.777344 208.28125 L 157.167969 208.28125 C 157.964844 208.28125 158.613281 207.632812 158.613281 206.828125 C 158.613281 206.023438 157.964844 205.375 157.167969 205.375 Z M 157.167969 205.375 "/>
<path style=" stroke:none;fill-rule:nonzero;fill:rgb(24.705882%,23.921569%,33.72549%);fill-opacity:1;" d="M 167.113281 205.375 L 161.722656 205.375 C 160.921875 205.375 160.273438 206.023438 160.273438 206.828125 C 160.273438 207.632812 160.921875 208.28125 161.722656 208.28125 L 167.113281 208.28125 C 167.910156 208.28125 168.5625 207.632812 168.5625 206.828125 C 168.5625 206.023438 167.910156 205.375 167.113281 205.375 Z M 167.113281 205.375 "/>
<path style=" stroke:none;fill-rule:nonzero;fill:rgb(24.705882%,23.921569%,33.72549%);fill-opacity:1;" d="M 157.167969 201.359375 L 151.777344 201.359375 C 150.976562 201.359375 150.328125 202.007812 150.328125 202.808594 C 150.328125 203.613281 150.976562 204.261719 151.777344 204.261719 L 157.167969 204.261719 C 157.964844 204.261719 158.613281 203.613281 158.613281 202.808594 C 158.613281 202.007812 157.964844 201.359375 157.167969 201.359375 Z M 157.167969 201.359375 "/>
<path style=" stroke:none;fill-rule:nonzero;fill:rgb(24.705882%,23.921569%,33.72549%);fill-opacity:1;" d="M 167.113281 201.359375 L 161.722656 201.359375 C 160.921875 201.359375 160.273438 202.007812 160.273438 202.808594 C 160.273438 203.613281 160.921875 204.261719 161.722656 204.261719 L 167.113281 204.261719 C 167.910156 204.261719 168.5625 203.613281 168.5625 202.808594 C 168.5625 202.007812 167.910156 201.359375 167.113281 201.359375 Z M 167.113281 201.359375 "/>
<path style=" stroke:none;fill-rule:nonzero;fill:rgb(90.196078%,90.196078%,90.196078%);fill-opacity:1;" d="M 227.53125 178.996094 L 240.597656 178.996094 L 240.597656 192.085938 L 227.53125 192.085938 Z M 227.53125 178.996094 "/>
<path style=" stroke:none;fill-rule:nonzero;fill:rgb(24.705882%,23.921569%,33.72549%);fill-opacity:1;" d="M 212.132812 186.945312 L 233.597656 186.945312 L 233.597656 208.441406 L 212.132812 208.441406 Z M 232.664062 187.878906 L 213.066406 187.878906 L 213.066406 207.507812 L 232.664062 207.507812 Z M 232.664062 187.878906 "/>
<path style=" stroke:none;fill-rule:nonzero;fill:rgb(90.196078%,90.196078%,90.196078%);fill-opacity:1;" d="M 0.285156 71.039062 L 13.351562 71.039062 L 13.351562 84.125 L 0.285156 84.125 Z M 0.285156 71.039062 "/>
<path style=" stroke:none;fill-rule:nonzero;fill:rgb(24.705882%,23.921569%,33.72549%);fill-opacity:1;" d="M 28.75 76.179688 L 7.285156 76.179688 L 7.285156 54.683594 L 28.75 54.683594 Z M 8.21875 75.246094 L 27.816406 75.246094 L 27.816406 55.613281 L 8.21875 55.613281 Z M 8.21875 75.246094 "/>
<path style=" stroke:none;fill-rule:nonzero;fill:rgb(100%,72.156863%,72.156863%);fill-opacity:1;" d="M 305.023438 309.117188 L 299.304688 309.117188 L 296.585938 287.019531 L 305.027344 287.019531 Z M 305.023438 309.117188 "/>
<path style=" stroke:none;fill-rule:nonzero;fill:rgb(18.431373%,18.039216%,25.490196%);fill-opacity:1;" d="M 295.21875 307.484375 L 306.253906 307.484375 L 306.253906 314.4375 L 288.269531 314.4375 C 288.269531 310.597656 291.382812 307.484375 295.21875 307.484375 Z M 295.21875 307.484375 "/>
<path style=" stroke:none;fill-rule:nonzero;fill:rgb(100%,72.156863%,72.156863%);fill-opacity:1;" d="M 333.488281 309.117188 L 327.769531 309.117188 L 325.046875 287.019531 L 333.488281 287.019531 Z M 333.488281 309.117188 "/>
<path style=" stroke:none;fill-rule:nonzero;fill:rgb(18.431373%,18.039216%,25.490196%);fill-opacity:1;" d="M 323.683594 307.484375 L 334.714844 307.484375 L 334.714844 314.4375 L 316.734375 314.4375 C 316.734375 310.597656 319.84375 307.484375 323.683594 307.484375 Z M 323.683594 307.484375 "/>
<path style=" stroke:none;fill-rule:nonzero;fill:rgb(100%,72.156863%,72.156863%);fill-opacity:1;" d="M 276.328125 230.082031 C 275.492188 228.855469 275.25 227.316406 275.65625 225.886719 C 276.058594 224.460938 277.078125 223.28125 278.433594 222.679688 L 297.878906 168.996094 L 307.449219 174.226562 L 285.246094 225.527344 C 286.128906 227.925781 285.082031 230.609375 282.804688 231.769531 C 280.53125 232.933594 277.75 232.207031 276.328125 230.082031 Z M 276.328125 230.082031 "/>
<path style=" stroke:none;fill-rule:nonzero;fill:rgb(100%,72.156863%,72.156863%);fill-opacity:1;" d="M 330.566406 240.167969 C 329.28125 239.429688 328.386719 238.160156 328.125 236.695312 C 327.867188 235.234375 328.265625 233.730469 329.21875 232.589844 L 323.195312 175.800781 L 334.082031 176.300781 L 336.585938 232.160156 C 338.433594 233.929688 338.664062 236.796875 337.128906 238.84375 C 335.59375 240.886719 332.773438 241.457031 330.566406 240.167969 Z M 330.566406 240.167969 "/>
<path style=" stroke:none;fill-rule:nonzero;fill:rgb(100%,72.156863%,72.156863%);fill-opacity:1;" d="M 324.65625 147.570312 C 324.65625 153.910156 319.523438 159.050781 313.195312 159.050781 C 306.863281 159.050781 301.734375 153.910156 301.734375 147.570312 C 301.734375 141.230469 306.863281 136.09375 313.195312 136.09375 C 319.523438 136.09375 324.65625 141.230469 324.65625 147.570312 Z M 324.65625 147.570312 "/>
<path style=" stroke:none;fill-rule:nonzero;fill:rgb(80%,80%,80%);fill-opacity:1;" d="M 330.496094 227.253906 L 295.941406 227.253906 L 295.984375 226.984375 C 296.046875 226.582031 302.140625 186.585938 297.644531 173.503906 C 296.710938 170.839844 297.933594 167.898438 300.476562 166.6875 C 306.90625 163.65625 319.238281 159.921875 329.652344 168.980469 C 332.757812 171.730469 334.394531 175.777344 334.066406 179.914062 Z M 330.496094 227.253906 "/>
<path style=" stroke:none;fill-rule:nonzero;fill:rgb(80%,80%,80%);fill-opacity:1;" d="M 302.578125 192.496094 L 287.023438 189.335938 L 294.316406 172.03125 C 295.222656 168.539062 298.78125 166.445312 302.265625 167.347656 C 305.753906 168.246094 307.855469 171.808594 306.964844 175.300781 Z M 302.578125 192.496094 "/>
<path style=" stroke:none;fill-rule:nonzero;fill:rgb(80%,80%,80%);fill-opacity:1;" d="M 322.5 198.367188 L 321.566406 176.898438 C 320.859375 172.859375 323.164062 169.042969 326.710938 168.417969 C 330.257812 167.796875 333.726562 170.597656 334.4375 174.664062 L 337.953125 194.726562 Z M 322.5 198.367188 "/>
<path style=" stroke:none;fill-rule:nonzero;fill:rgb(18.431373%,18.039216%,25.490196%);fill-opacity:1;" d="M 329.34375 224.683594 C 334.90625 245.890625 335.511719 272.855469 334.011719 302.265625 L 326.542969 301.332031 L 313.015625 245.25 L 305.546875 302.265625 L 297.148438 301.796875 C 294.640625 270.9375 292.195312 244.445312 296.214844 227.023438 Z M 329.34375 224.683594 "/>
<path style=" stroke:none;fill-rule:nonzero;fill:rgb(18.431373%,18.039216%,25.490196%);fill-opacity:1;" d="M 320.746094 156.441406 C 318.609375 158.722656 314.636719 157.5 314.359375 154.382812 C 314.335938 154.140625 314.339844 153.898438 314.363281 153.65625 C 314.507812 152.277344 315.304688 151.023438 315.113281 149.566406 C 315.070312 149.203125 314.933594 148.855469 314.722656 148.558594 C 313.015625 146.277344 309.015625 149.582031 307.410156 147.511719 C 306.425781 146.246094 307.582031 144.25 306.828125 142.832031 C 305.828125 140.960938 302.871094 141.882812 301.015625 140.855469 C 298.953125 139.71875 299.074219 136.546875 300.433594 134.617188 C 302.089844 132.265625 304.996094 131.007812 307.863281 130.828125 C 310.730469 130.648438 313.582031 131.425781 316.261719 132.46875 C 319.300781 133.65625 322.320312 135.300781 324.191406 137.976562 C 326.46875 141.238281 326.6875 145.621094 325.550781 149.429688 C 324.855469 151.75 322.492188 154.582031 320.746094 156.441406 Z M 320.746094 156.441406 "/>
<path style=" stroke:none;fill-rule:nonzero;fill:rgb(24.705882%,23.921569%,33.72549%);fill-opacity:1;" d="M 399.304688 315 L 221.523438 315 C 221.265625 315 221.054688 314.789062 221.054688 314.53125 C 221.054688 314.273438 221.265625 314.066406 221.523438 314.066406 L 399.304688 314.066406 C 399.5625 314.066406 399.769531 314.273438 399.769531 314.53125 C 399.769531 314.789062 399.5625 315 399.304688 315 Z M 399.304688 315 "/>
</g>
</svg>
